<mxfile host="app.diagrams.net" agent="Mozilla/5.0 (Macintosh; Intel Mac OS X 10_15_7) AppleWebKit/537.36 (KHTML, like Gecko) Chrome/135.0.0.0 Safari/537.36" version="27.0.4">
  <diagram id="prtHgNgQTEPvFCAcTncT" name="Page-1">
    <mxGraphModel dx="1306" dy="1984" grid="1" gridSize="10" guides="1" tooltips="1" connect="1" arrows="1" fold="1" page="1" pageScale="1" pageWidth="827" pageHeight="1169" math="0" shadow="0">
      <root>
        <mxCell id="0" />
        <mxCell id="1" parent="0" />
        <mxCell id="dNxyNK7c78bLwvsdeMH5-11" value="丰科集团" style="swimlane;html=1;startSize=20;horizontal=1;containerType=tree;glass=0;" parent="1" vertex="1">
          <mxGeometry x="10" y="-180" width="1110" height="1010" as="geometry" />
        </mxCell>
        <mxCell id="m1WiPd7YeJ3kERKkyk8F-1" value="" style="rounded=0;whiteSpace=wrap;html=1;fillColor=#dae8fc;strokeColor=#6c8ebf;" vertex="1" parent="dNxyNK7c78bLwvsdeMH5-11">
          <mxGeometry x="90" y="280" width="1014" height="170" as="geometry" />
        </mxCell>
        <mxCell id="m1WiPd7YeJ3kERKkyk8F-3" value="" style="rounded=0;whiteSpace=wrap;html=1;fillColor=#e1d5e7;strokeColor=#9673a6;" vertex="1" parent="dNxyNK7c78bLwvsdeMH5-11">
          <mxGeometry x="90" y="750" width="1020" height="220" as="geometry" />
        </mxCell>
        <mxCell id="m1WiPd7YeJ3kERKkyk8F-4" value="" style="rounded=0;whiteSpace=wrap;html=1;fillColor=#d5e8d4;strokeColor=#82b366;" vertex="1" parent="dNxyNK7c78bLwvsdeMH5-11">
          <mxGeometry x="90" y="500" width="1020" height="200" as="geometry" />
        </mxCell>
        <mxCell id="m1WiPd7YeJ3kERKkyk8F-21" style="edgeStyle=orthogonalEdgeStyle;rounded=0;orthogonalLoop=1;jettySize=auto;html=1;entryX=0;entryY=0.5;entryDx=0;entryDy=0;strokeColor=#7EA6E0;strokeWidth=3;" edge="1" parent="dNxyNK7c78bLwvsdeMH5-11" source="m1WiPd7YeJ3kERKkyk8F-6" target="m1WiPd7YeJ3kERKkyk8F-7">
          <mxGeometry relative="1" as="geometry" />
        </mxCell>
        <mxCell id="m1WiPd7YeJ3kERKkyk8F-6" value="&lt;span style=&quot;font-size: 14px;&quot;&gt;数据中台&lt;/span&gt;" style="rounded=1;whiteSpace=wrap;html=1;" vertex="1" parent="dNxyNK7c78bLwvsdeMH5-11">
          <mxGeometry x="120" y="590" width="520" height="60" as="geometry" />
        </mxCell>
        <mxCell id="m1WiPd7YeJ3kERKkyk8F-47" style="edgeStyle=orthogonalEdgeStyle;rounded=0;orthogonalLoop=1;jettySize=auto;html=1;exitX=0.5;exitY=1;exitDx=0;exitDy=0;" edge="1" parent="dNxyNK7c78bLwvsdeMH5-11" source="m1WiPd7YeJ3kERKkyk8F-7" target="m1WiPd7YeJ3kERKkyk8F-45">
          <mxGeometry relative="1" as="geometry" />
        </mxCell>
        <mxCell id="m1WiPd7YeJ3kERKkyk8F-48" style="edgeStyle=orthogonalEdgeStyle;rounded=0;orthogonalLoop=1;jettySize=auto;html=1;entryX=0.5;entryY=0;entryDx=0;entryDy=0;" edge="1" parent="dNxyNK7c78bLwvsdeMH5-11" source="m1WiPd7YeJ3kERKkyk8F-7" target="m1WiPd7YeJ3kERKkyk8F-46">
          <mxGeometry relative="1" as="geometry" />
        </mxCell>
        <mxCell id="m1WiPd7YeJ3kERKkyk8F-7" value="&lt;font style=&quot;font-size: 14px;&quot;&gt;应用门户&lt;/font&gt;" style="rounded=1;whiteSpace=wrap;html=1;" vertex="1" parent="dNxyNK7c78bLwvsdeMH5-11">
          <mxGeometry x="716" y="590" width="120" height="60" as="geometry" />
        </mxCell>
        <mxCell id="m1WiPd7YeJ3kERKkyk8F-8" value="&lt;meta charset=&quot;utf-8&quot;&gt;&lt;span style=&quot;color: rgb(0, 0, 0); font-family: Helvetica; font-size: 12px; font-style: normal; font-variant-ligatures: normal; font-variant-caps: normal; font-weight: 400; letter-spacing: normal; orphans: 2; text-align: center; text-indent: 0px; text-transform: none; widows: 2; word-spacing: 0px; -webkit-text-stroke-width: 0px; white-space: normal; background-color: rgb(236, 236, 236); text-decoration-thickness: initial; text-decoration-style: initial; text-decoration-color: initial; display: inline !important; float: none;&quot;&gt;OA系统&lt;/span&gt;" style="text;html=1;align=center;verticalAlign=middle;whiteSpace=wrap;rounded=0;" vertex="1" parent="dNxyNK7c78bLwvsdeMH5-11">
          <mxGeometry x="90" y="750" width="60" height="30" as="geometry" />
        </mxCell>
        <mxCell id="m1WiPd7YeJ3kERKkyk8F-9" value="&lt;font style=&quot;font-size: 14px;&quot;&gt;基础数据&lt;br&gt;（代办信息、人员、单位、收付款等）&lt;/font&gt;" style="rounded=1;whiteSpace=wrap;html=1;" vertex="1" parent="dNxyNK7c78bLwvsdeMH5-11">
          <mxGeometry x="224" y="825" width="270" height="70" as="geometry" />
        </mxCell>
        <mxCell id="m1WiPd7YeJ3kERKkyk8F-15" value="&lt;span style=&quot;color: rgb(0, 0, 0); font-family: Helvetica; font-size: 12px; font-style: normal; font-variant-ligatures: normal; font-variant-caps: normal; font-weight: 400; letter-spacing: normal; orphans: 2; text-align: center; text-indent: 0px; text-transform: none; widows: 2; word-spacing: 0px; -webkit-text-stroke-width: 0px; white-space: normal; background-color: rgb(236, 236, 236); text-decoration-thickness: initial; text-decoration-style: initial; text-decoration-color: initial; float: none; display: inline !important;&quot;&gt;丰科平台&lt;/span&gt;" style="text;html=1;align=center;verticalAlign=middle;whiteSpace=wrap;rounded=0;" vertex="1" parent="dNxyNK7c78bLwvsdeMH5-11">
          <mxGeometry x="90" y="500" width="60" height="30" as="geometry" />
        </mxCell>
        <mxCell id="m1WiPd7YeJ3kERKkyk8F-28" style="edgeStyle=orthogonalEdgeStyle;rounded=0;orthogonalLoop=1;jettySize=auto;html=1;strokeWidth=3;strokeColor=#7EA6E0;" edge="1" parent="dNxyNK7c78bLwvsdeMH5-11" source="m1WiPd7YeJ3kERKkyk8F-27" target="m1WiPd7YeJ3kERKkyk8F-7">
          <mxGeometry relative="1" as="geometry" />
        </mxCell>
        <mxCell id="m1WiPd7YeJ3kERKkyk8F-27" value="&lt;font style=&quot;font-size: 14px;&quot;&gt;财务预算&lt;/font&gt;" style="rounded=1;whiteSpace=wrap;html=1;" vertex="1" parent="dNxyNK7c78bLwvsdeMH5-11">
          <mxGeometry x="910" y="590" width="120" height="60" as="geometry" />
        </mxCell>
        <mxCell id="m1WiPd7YeJ3kERKkyk8F-29" value="&lt;span style=&quot;font-size: 12px; background-color: rgb(236, 236, 236);&quot;&gt;提供预算接口&lt;/span&gt;" style="edgeStyle=orthogonalEdgeStyle;rounded=0;orthogonalLoop=1;jettySize=auto;html=1;entryX=0.5;entryY=1;entryDx=0;entryDy=0;strokeWidth=3;strokeColor=#7EA6E0;" edge="1" parent="dNxyNK7c78bLwvsdeMH5-11" source="m1WiPd7YeJ3kERKkyk8F-27" target="m1WiPd7YeJ3kERKkyk8F-30">
          <mxGeometry x="-0.2821" y="10" relative="1" as="geometry">
            <mxPoint as="offset" />
          </mxGeometry>
        </mxCell>
        <mxCell id="m1WiPd7YeJ3kERKkyk8F-45" value="&lt;font style=&quot;font-size: 14px;&quot;&gt;工作流&lt;/font&gt;" style="rounded=1;whiteSpace=wrap;html=1;" vertex="1" parent="dNxyNK7c78bLwvsdeMH5-11">
          <mxGeometry x="606" y="830" width="120" height="60" as="geometry" />
        </mxCell>
        <mxCell id="m1WiPd7YeJ3kERKkyk8F-46" value="&lt;font style=&quot;font-size: 14px;&quot;&gt;支付核对&lt;/font&gt;" style="rounded=1;whiteSpace=wrap;html=1;" vertex="1" parent="dNxyNK7c78bLwvsdeMH5-11">
          <mxGeometry x="826" y="830" width="120" height="60" as="geometry" />
        </mxCell>
        <mxCell id="m1WiPd7YeJ3kERKkyk8F-14" value="&lt;span style=&quot;color: rgb(0, 0, 0); font-family: Helvetica; font-size: 12px; font-style: normal; font-variant-ligatures: normal; font-variant-caps: normal; font-weight: 400; letter-spacing: normal; orphans: 2; text-align: center; text-indent: 0px; text-transform: none; widows: 2; word-spacing: 0px; -webkit-text-stroke-width: 0px; white-space: normal; background-color: rgb(236, 236, 236); text-decoration-thickness: initial; text-decoration-style: initial; text-decoration-color: initial; float: none; display: inline !important;&quot;&gt;用友财务&lt;/span&gt;" style="text;html=1;align=center;verticalAlign=middle;whiteSpace=wrap;rounded=0;" vertex="1" parent="dNxyNK7c78bLwvsdeMH5-11">
          <mxGeometry x="93" y="265" width="60" height="65" as="geometry" />
        </mxCell>
        <mxCell id="m1WiPd7YeJ3kERKkyk8F-64" value="" style="rounded=0;whiteSpace=wrap;html=1;fillColor=#fff2cc;gradientColor=#ffd966;strokeColor=#d6b656;" vertex="1" parent="dNxyNK7c78bLwvsdeMH5-11">
          <mxGeometry x="130" y="310" width="590" height="110" as="geometry" />
        </mxCell>
        <mxCell id="m1WiPd7YeJ3kERKkyk8F-25" value="&lt;font style=&quot;font-size: 14px;&quot;&gt;基础档案数据&lt;br&gt;（部门、项目、内外商）&lt;/font&gt;" style="rounded=1;whiteSpace=wrap;html=1;" vertex="1" parent="dNxyNK7c78bLwvsdeMH5-11">
          <mxGeometry x="153" y="330" width="160" height="70" as="geometry" />
        </mxCell>
        <mxCell id="m1WiPd7YeJ3kERKkyk8F-30" value="&lt;span style=&quot;font-size: 14px;&quot;&gt;财务平台&lt;/span&gt;" style="rounded=1;whiteSpace=wrap;html=1;" vertex="1" parent="dNxyNK7c78bLwvsdeMH5-11">
          <mxGeometry x="910" y="335" width="120" height="60" as="geometry" />
        </mxCell>
        <mxCell id="m1WiPd7YeJ3kERKkyk8F-34" value="&lt;font style=&quot;font-size: 14px;&quot;&gt;实时数据&lt;br&gt;（凭证、动态资产等）&lt;/font&gt;" style="rounded=1;whiteSpace=wrap;html=1;" vertex="1" parent="dNxyNK7c78bLwvsdeMH5-11">
          <mxGeometry x="334" y="330" width="160" height="70" as="geometry" />
        </mxCell>
        <mxCell id="m1WiPd7YeJ3kERKkyk8F-49" value="&lt;span style=&quot;font-size: 14px;&quot;&gt;整合数据&lt;/span&gt;" style="rounded=1;whiteSpace=wrap;html=1;" vertex="1" parent="dNxyNK7c78bLwvsdeMH5-11">
          <mxGeometry x="517" y="330" width="160" height="70" as="geometry" />
        </mxCell>
        <mxCell id="m1WiPd7YeJ3kERKkyk8F-52" style="edgeStyle=orthogonalEdgeStyle;rounded=0;orthogonalLoop=1;jettySize=auto;html=1;strokeWidth=3;strokeColor=#7EA6E0;" edge="1" parent="dNxyNK7c78bLwvsdeMH5-11" source="m1WiPd7YeJ3kERKkyk8F-49">
          <mxGeometry relative="1" as="geometry">
            <mxPoint x="596" y="590" as="targetPoint" />
          </mxGeometry>
        </mxCell>
        <mxCell id="m1WiPd7YeJ3kERKkyk8F-55" value="实时推送" style="edgeLabel;html=1;align=center;verticalAlign=middle;resizable=0;points=[];" vertex="1" connectable="0" parent="m1WiPd7YeJ3kERKkyk8F-52">
          <mxGeometry x="-0.1181" y="-1" relative="1" as="geometry">
            <mxPoint x="1" y="31" as="offset" />
          </mxGeometry>
        </mxCell>
        <mxCell id="m1WiPd7YeJ3kERKkyk8F-53" style="edgeStyle=orthogonalEdgeStyle;rounded=0;orthogonalLoop=1;jettySize=auto;html=1;exitX=0.5;exitY=1;exitDx=0;exitDy=0;entryX=0.565;entryY=0.033;entryDx=0;entryDy=0;entryPerimeter=0;strokeWidth=3;strokeColor=#7EA6E0;" edge="1" parent="dNxyNK7c78bLwvsdeMH5-11" source="m1WiPd7YeJ3kERKkyk8F-34" target="m1WiPd7YeJ3kERKkyk8F-6">
          <mxGeometry relative="1" as="geometry" />
        </mxCell>
        <mxCell id="m1WiPd7YeJ3kERKkyk8F-56" value="提供实时接口" style="edgeLabel;html=1;align=center;verticalAlign=middle;resizable=0;points=[];" vertex="1" connectable="0" parent="m1WiPd7YeJ3kERKkyk8F-53">
          <mxGeometry x="-0.157" y="1" relative="1" as="geometry">
            <mxPoint x="-1" y="34" as="offset" />
          </mxGeometry>
        </mxCell>
        <mxCell id="m1WiPd7YeJ3kERKkyk8F-54" style="edgeStyle=orthogonalEdgeStyle;rounded=0;orthogonalLoop=1;jettySize=auto;html=1;entryX=0.219;entryY=0.017;entryDx=0;entryDy=0;entryPerimeter=0;strokeColor=#7EA6E0;strokeWidth=3;" edge="1" parent="dNxyNK7c78bLwvsdeMH5-11" source="m1WiPd7YeJ3kERKkyk8F-25" target="m1WiPd7YeJ3kERKkyk8F-6">
          <mxGeometry relative="1" as="geometry" />
        </mxCell>
        <mxCell id="m1WiPd7YeJ3kERKkyk8F-57" value="提供接口定时拉取" style="edgeLabel;html=1;align=center;verticalAlign=middle;resizable=0;points=[];" vertex="1" connectable="0" parent="m1WiPd7YeJ3kERKkyk8F-54">
          <mxGeometry x="-0.1038" relative="1" as="geometry">
            <mxPoint y="29" as="offset" />
          </mxGeometry>
        </mxCell>
        <mxCell id="m1WiPd7YeJ3kERKkyk8F-62" style="edgeStyle=orthogonalEdgeStyle;rounded=0;orthogonalLoop=1;jettySize=auto;html=1;entryX=0.458;entryY=1;entryDx=0;entryDy=0;entryPerimeter=0;strokeColor=#7EA6E0;strokeWidth=3;" edge="1" parent="dNxyNK7c78bLwvsdeMH5-11" source="m1WiPd7YeJ3kERKkyk8F-9" target="m1WiPd7YeJ3kERKkyk8F-6">
          <mxGeometry relative="1" as="geometry" />
        </mxCell>
      </root>
    </mxGraphModel>
  </diagram>
</mxfile>
